<svg xmlns="http://www.w3.org/2000/svg" viewBox="0 0 673.34 428.06"><defs><style>.cls-1{fill:none;stroke:#fff;stroke-miterlimit:10}</style></defs><title>Asset 32</title><g id="Layer_2" data-name="Layer 2"><g id="Layer_1-2" data-name="Layer 1"><rect width="36.03" height="36.03" x="225.86" y="383.86" class="cls-1" transform="translate(700.5 513.59) rotate(135)"/><rect width="72.34" height="72.34" x="402.29" y="179.61" class="cls-1" transform="translate(901.07 58.32) rotate(135)"/><rect width="151.32" height="151.32" x="52.22" y="32.05" class="cls-1" transform="translate(-38.7 121.97) rotate(-45)"/><rect width="149.4" height="149.4" x="53.18" y="247.01" class="cls-1" transform="translate(-190.03 184.65) rotate(-45)"/><rect width="144.59" height="144.59" x="264.23" y="35.41" class="cls-1" transform="translate(22.41 269.5) rotate(-45)"/><rect width="114.94" height="114.94" x="279.05" y="264.24" class="cls-1" transform="translate(-128.92 332.18) rotate(-45)"/><rect width="151.32" height="151.32" x="469.8" y="32.05" class="cls-1" transform="translate(83.6 417.24) rotate(-45)"/><rect width="149.4" height="149.4" x="470.76" y="247.01" class="cls-1" transform="translate(-67.72 479.92) rotate(-45)"/><rect width="36.03" height="36.03" x="8.17" y="197.76" class="cls-1" transform="translate(197.28 349.84) rotate(135)"/><rect width="36.03" height="36.03" x="629.14" y="197.76" class="cls-1" transform="translate(1257.34 -89.25) rotate(135)"/></g></g></svg>