<svg xmlns="http://www.w3.org/2000/svg" viewBox="0 0 304 152"><defs><style>.cls-1{fill:#404041}.cls-2{fill:none;stroke:#fff;stroke-miterlimit:10;stroke-width:.75px}</style></defs><title>Asset 30</title><g id="Layer_2" data-name="Layer 2"><g id="Layer_1-2" data-name="Layer 1"><rect width="304" height="152" class="cls-1"/><rect width="8.71" height="8.71" x="73.59" y="117.71" class="cls-2" transform="translate(219.38 153.26) rotate(135)"/><rect width="8.71" height="8.71" x="223.92" y="72.11" class="cls-2" transform="translate(443.77 -30.88) rotate(135)"/><rect width="8.71" height="8.71" x="175.6" y="26.84" class="cls-2" transform="translate(329.26 -73.99) rotate(135)"/><rect width="17.5" height="17.5" x="116.41" y="68.07" class="cls-2" transform="translate(267.98 42.63) rotate(135)"/><rect width="36.6" height="36.6" x="31.54" y="32.62" class="cls-2" transform="translate(-21.41 50.15) rotate(-45)"/><rect width="36.14" height="36.14" x="31.77" y="84.61" class="cls-2" transform="translate(-58.01 65.32) rotate(-45)"/><rect width="34.97" height="34.97" x="82.87" y="33.43" class="cls-2" transform="translate(-6.61 85.88) rotate(-45)"/><rect width="27.8" height="27.8" x="86.46" y="88.45" class="cls-2" transform="translate(-42.98 100.94) rotate(-45)"/><rect width="36.6" height="36.6" x="132.67" y="32.62" class="cls-2" transform="translate(8.21 121.66) rotate(-45)"/><rect width="36.6" height="36.6" x="235.86" y="32.29" class="cls-2" transform="translate(38.67 194.54) rotate(-45)"/><rect width="36.14" height="36.14" x="132.9" y="84.61" class="cls-2" transform="translate(-28.39 136.82) rotate(-45)"/><rect width="27.8" height="27.8" x="188.5" y="36.69" class="cls-2" transform="translate(23.51 157.94) rotate(-45)"/><rect width="36.6" height="36.6" x="184.1" y="84.05" class="cls-2" transform="translate(-13.09 173.1) rotate(-45)"/><rect width="36.6" height="36.6" x="235.86" y="84.05" class="cls-2" transform="translate(2.07 209.7) rotate(-45)"/><rect width="8.71" height="8.71" x="19.67" y="72.11" class="cls-2" transform="translate(95.09 113.55) rotate(135)"/><rect width="8.71" height="8.71" x="275.62" y="72.11" class="cls-2" transform="translate(532.02 -67.43) rotate(135)"/></g></g></svg>